<svg xmlns="http://www.w3.org/2000/svg" width="228" height="120" fill="none"><g clip-path="url(#a)"><path fill="#0A0C10" d="M0 0h228v120H0V0Z"/><path fill="#09B43A" d="M233 21H49v12h184V21ZM233 33H49v12h184V33Z" opacity=".3"/><path fill="#FF6A69" d="M233 45H49v12h184V45ZM233 57H49v12h184V57Z" opacity=".3"/><path fill="#010409" d="M0 0h228v21H0z"/><rect width="28" height="3" x="15" y="6" fill="#9EA7B3" rx="1.5"/><rect width="28" height="3" x="15" y="11" fill="#9EA7B3" rx="1.5"/><rect width="6" height="6" x="5" y="7" fill="#9EA7B3" rx="3"/><rect width="28" height="3" x="65" y="6" fill="#9EA7B3" rx="1.5"/><rect width="28" height="3" x="65" y="11" fill="#9EA7B3" rx="1.5"/><rect width="6" height="6" x="55" y="7" fill="#9EA7B3" rx="3"/><rect width="28" height="3" x="115" y="6" fill="#9EA7B3" rx="1.5"/><rect width="28" height="3" x="115" y="11" fill="#9EA7B3" rx="1.5"/><rect width="6" height="6" x="105" y="7" fill="#9EA7B3" rx="3"/><path fill="#010409" d="M0 88h49v32H0z"/><rect width="42" height="5" x="3" y="90" fill="#272B33" rx="2"/><rect width="42" height="5" x="3" y="25" fill="#9EA7B3" rx="2"/><rect width="42" height="5" x="3" y="31" fill="#9EA7B3" rx="2"/><rect width="42" height="5" x="3" y="37" fill="#9EA7B3" rx="2"/><rect width="42" height="14" x="3" y="97" fill="#272B33" rx="2"/><rect width="42" height="5" x="3" y="113" fill="#409EFF" rx="2"/><path fill="#7A828E" d="M48 21h1v99h-1z"/><path fill="#7A828E" d="M0 21h228v1H0z"/><rect width="105" height="7" x="53" y="35" fill="#09B43A" rx="3.5"/><rect width="55" height="7" x="53" y="47" fill="#FF6A69" rx="3.5"/><rect width="76" height="7" x="53" y="59" fill="#FF6A69" rx="3.5"/><rect width="55" height="6" x="54" y="24" fill="#09B43A" rx="3"/></g><defs><clipPath id="a"><path fill="#fff" d="M0 0h228v120H0z"/></clipPath></defs></svg>